<?xml version="1.0" encoding="UTF-8"?>
<svg width="512" height="512" clip-rule="evenodd" fill-rule="evenodd" version="1.1" xmlns="http://www.w3.org/2000/svg">
 <rect width="512" height="512" fill="#ff4330" stroke-width="32.608"/>
 <path d="m403.92 271.85c-0.39935-87.15-66.518-158.54-147.92-158.54-81.398 0-147.52 71.391-147.92 158.54h36.979c12.247 0 22.187 10.654 22.187 23.781v110.98c0 13.127-9.9399 23.781-22.187 23.781h-44.375c-12.247 0-22.187-10.654-22.187-23.781v-134.76c0.39937-104.65 79.786-190.25 177.5-190.25 97.713 0 177.1 85.596 177.5 190.25v134.76c0 13.127-9.9399 23.781-22.187 23.781h-44.375c-12.247 0-22.187-10.654-22.187-23.781v-110.98c0-13.127 9.9399-23.781 22.187-23.781z" fill="#fff" stroke-width="15.314"/>
</svg>
